{"title":"Monster's Ball [Unrated DC].2001.BRRip.XviD.AC3[5.1]-VLiS","uid":5026180,"size":1396927601,"categoryP":"video","categoryS":"movies","magnet":"?xt=urn:btih:a8c50eb31973b62a4ea272ae5a1e9028c2c584e5&amp;dn=Monster%5C%27s+Ball+%5BUnrated+DC%5D.2001.BRRip.XviD.AC3%5B5.1%5D-VLiS&amp;tr=udp%3A%2F%2Ftracker.openbittorrent.com%3A80&amp;tr=udp%3A%2F%2Fopen.demonii.com%3A1337&amp;tr=udp%3A%2F%2Ftracker.coppersurfer.tk%3A6969&amp;tr=udp%3A%2F%2Fexodus.desync.com%3A6969","seeders":26,"leechers":5,"uploader":"VLiS","files":-1,"time":1248707093,"description":"              Monster's Ball [Unrated DC].2001.BRRip.XviD.AC3[5.1]-VLiS\n\n                       \n                       &lt;a href=&quot; http://www.imdb.com/title/tt0285742/&quot; rel=&quot;nofollow&quot; target=&quot;_NEW&quot;&gt; http://www.imdb.com/title/tt0285742/&lt;/a&gt;\n\n\n\nMovie Title: Monster's Ball\n\nDirector: Marc Forster\n\nCast: Billy Bob Thornton, Halle Berry, Heath Ledger, Peter Boyle\n\n\n\n\n              Language: English - Optional English subtitles included\n\n\n\nGeneral\nFormat                           : AVI\nFormat/Info                      : Audio Video Interleave\nFile size                        : 1.30 GiB\nDuration                         : 1h 52mn\nOverall bit rate                 : 1 652 Kbps\nWriting application              : VirtualDubMod 1.5.10.2 (build 2542/release)\nWriting library                  : VirtualDubMod build 2542/release\n\nVideo\nFormat                           : MPEG-4 Visual\nFormat profile                   : Streaming Video@L1\nFormat settings, BVOP            : Yes\nFormat settings, QPel            : No\nFormat settings, GMC             : No warppoints\nFormat settings, Matrix          : Default (MPEG)\nCodec ID                         : XVID\nCodec ID/Hint                    : XviD\nDuration                         : 1h 52mn\nBit rate                         : 1 195 Kbps\nWidth                            : 720 pixels\nHeight                           : 304 pixels\nDisplay aspect ratio             : 2.35\nFrame rate                       : 23.976 fps\nResolution                       : 24 bits\nColorimetry                      : 4:2:0\nScan type                        : Progressive\nBits/(Pixel*Frame)               : 0.228\nStream size                      : 963 MiB (72%)\nWriting library                  : XviD 1.2.1 (UTC 2008-12-04)\n\nAudio\nFormat                           : AC-3\nFormat/Info                      : Audio Coding 3\nCodec ID                         : 2000\nDuration                         : 1h 52mn\nBit rate mode                    : Constant\nBit rate                         : 448 Kbps\nChannel(s)                       : 6 channels\nChannel positions                : Front: L C R, Surround: L R, LFE\nSampling rate                    : 48.0 KHz\nStream size                      : 361 MiB (27%)\nAlignment                        : Split accross interleaves\nInterleave, duration             : 42 ms (1.00 video frame)\nInterleave, preload duration     : 500 ms\n\n\nSource: Monsters.Ball.2001.720p.BluRay.x264-SiNNERS\n\n\nScreenshots: &lt;a href=&quot;\nhttp://leetleech.org/images/13255890009632508217.png&quot; rel=&quot;nofollow&quot; target=&quot;_NEW&quot;&gt;\nhttp://leetleech.org/images/13255890009632508217.png&lt;/a&gt; &lt;a href=&quot;\nhttp://leetleech.org/images/38372873230938973162.png&quot; rel=&quot;nofollow&quot; target=&quot;_NEW&quot;&gt;\nhttp://leetleech.org/images/38372873230938973162.png&lt;/a&gt; &lt;a href=&quot;\nhttp://leetleech.org/images/85359847834992638724.png&quot; rel=&quot;nofollow&quot; target=&quot;_NEW&quot;&gt;\nhttp://leetleech.org/images/85359847834992638724.png&lt;/a&gt; &lt;a href=&quot;\nhttp://leetleech.org/images/74737749867035910709.png&quot; rel=&quot;nofollow&quot; target=&quot;_NEW&quot;&gt;\nhttp://leetleech.org/images/74737749867035910709.png&lt;/a&gt; &lt;a href=&quot;\nhttp://leetleech.org/images/10997360118513746706.png&quot; rel=&quot;nofollow&quot; target=&quot;_NEW&quot;&gt;\nhttp://leetleech.org/images/10997360118513746706.png&lt;/a&gt;\n\n\n\n                               Encoded By VLiS","torrent":{"xt":"urn:btih:a8c50eb31973b62a4ea272ae5a1e9028c2c584e5","amp;dn":"Monster%5C%27s+Ball+%5BUnrated+DC%5D.2001.BRRip.XviD.AC3%5B5.1%5D-VLiS","amp;tr":["udp%3A%2F%2Ftracker.openbittorrent.com%3A80","udp%3A%2F%2Fopen.demonii.com%3A1337","udp%3A%2F%2Ftracker.coppersurfer.tk%3A6969","udp%3A%2F%2Fexodus.desync.com%3A6969"],"infoHash":"a8c50eb31973b62a4ea272ae5a1e9028c2c584e5","infoHashBuffer":{"type":"Buffer","data":[168,197,14,179,25,115,182,42,78,162,114,174,90,30,144,40,194,197,132,229]},"announce":[],"urlList":[]}}